<svg xmlns="http://www.w3.org/2000/svg" version="1.1" height="240" width="240" viewBox="0 0 240 240" class="diagram" text-anchor="middle" font-family="monospace" font-size="13px" stroke-linecap="round">
<path d="M 104,96 L 128,96" fill="#f8ddac" stroke="#f8ddac"/>
<rect class="gray" x="196" y="184" width="8" height="16" fill="#f8ddac"/>
<rect class="gray" x="196" y="168" width="8" height="16" fill="#f8ddac"/>
<rect class="gray" x="196" y="152" width="8" height="16" fill="#f8ddac"/>
<rect class="gray" x="188" y="184" width="8" height="16" fill="#f8ddac"/>
<rect class="gray" x="188" y="168" width="8" height="16" fill="#f8ddac"/>
<rect class="gray" x="180" y="200" width="8" height="16" fill="#f8ddac"/>
<rect class="gray" x="180" y="168" width="8" height="16" fill="#f8ddac"/>
<rect class="gray" x="172" y="200" width="8" height="16" fill="#f8ddac"/>
<rect class="gray" x="172" y="168" width="8" height="16" fill="#f8ddac"/>
<rect class="gray" x="164" y="216" width="8" height="16" fill="#f8ddac"/>
<rect class="gray" x="164" y="200" width="8" height="16" fill="#f8ddac"/>
<rect class="gray" x="164" y="168" width="8" height="16" fill="#f8ddac"/>
<rect class="gray" x="156" y="216" width="8" height="16" fill="#f8ddac"/>
<rect class="gray" x="156" y="200" width="8" height="16" fill="#f8ddac"/>
<rect class="gray" x="156" y="168" width="8" height="16" fill="#f8ddac"/>
<rect class="gray" x="148" y="216" width="8" height="16" fill="#f8ddac"/>
<rect class="gray" x="148" y="200" width="8" height="16" fill="#f8ddac"/>
<rect class="gray" x="148" y="168" width="8" height="16" fill="#f8ddac"/>
<rect class="gray" x="140" y="216" width="8" height="16" fill="#f8ddac"/>
<rect class="gray" x="140" y="200" width="8" height="16" fill="#f8ddac"/>
<rect class="gray" x="140" y="168" width="8" height="16" fill="#f8ddac"/>
<rect class="gray" x="132" y="216" width="8" height="16" fill="#f8ddac"/>
<rect class="gray" x="132" y="200" width="8" height="16" fill="#f8ddac"/>
<rect class="gray" x="132" y="168" width="8" height="16" fill="#f8ddac"/>
<rect class="gray" x="124" y="216" width="8" height="16" fill="#f8ddac"/>
<rect class="gray" x="124" y="200" width="8" height="16" fill="#f8ddac"/>
<rect class="gray" x="124" y="168" width="8" height="16" fill="#f8ddac"/>
<rect class="gray" x="116" y="216" width="8" height="16" fill="#f8ddac"/>
<rect class="gray" x="116" y="200" width="8" height="16" fill="#f8ddac"/>
<rect class="gray" x="116" y="168" width="8" height="16" fill="#f8ddac"/>
<rect class="gray" x="108" y="216" width="8" height="16" fill="#f8ddac"/>
<rect class="gray" x="108" y="200" width="8" height="16" fill="#f8ddac"/>
<rect class="gray" x="108" y="168" width="8" height="16" fill="#f8ddac"/>
<rect class="gray" x="100" y="216" width="8" height="16" fill="#f8ddac"/>
<rect class="gray" x="100" y="200" width="8" height="16" fill="#f8ddac"/>
<rect class="gray" x="100" y="168" width="8" height="16" fill="#f8ddac"/>
<rect class="gray" x="100" y="152" width="8" height="16" fill="#f8ddac"/>
<rect class="gray" x="92" y="216" width="8" height="16" fill="#f8ddac"/>
<rect class="gray" x="92" y="200" width="8" height="16" fill="#f8ddac"/>
<rect class="gray" x="92" y="168" width="8" height="16" fill="#f8ddac"/>
<rect class="gray" x="84" y="216" width="8" height="16" fill="#f8ddac"/>
<rect class="gray" x="84" y="200" width="8" height="16" fill="#f8ddac"/>
<rect class="gray" x="84" y="168" width="8" height="16" fill="#f8ddac"/>
<rect class="gray" x="76" y="216" width="8" height="16" fill="#f8ddac"/>
<rect class="gray" x="76" y="200" width="8" height="16" fill="#f8ddac"/>
<rect class="gray" x="76" y="168" width="8" height="16" fill="#f8ddac"/>
<rect class="gray" x="68" y="200" width="8" height="16" fill="#f8ddac"/>
<rect class="gray" x="68" y="168" width="8" height="16" fill="#f8ddac"/>
<rect class="gray" x="68" y="152" width="8" height="16" fill="#f8ddac"/>
<rect class="gray" x="60" y="200" width="8" height="16" fill="#f8ddac"/>
<rect class="gray" x="60" y="168" width="8" height="16" fill="#f8ddac"/>
<rect class="gray" x="60" y="152" width="8" height="16" fill="#f8ddac"/>
<rect class="gray" x="52" y="200" width="8" height="16" fill="#f8ddac"/>
<rect class="gray" x="52" y="168" width="8" height="16" fill="#f8ddac"/>
<rect class="gray" x="44" y="184" width="8" height="16" fill="#f8ddac"/>
<rect class="gray" x="44" y="168" width="8" height="16" fill="#f8ddac"/>
<rect class="gray" x="36" y="184" width="8" height="16" fill="#f8ddac"/>
<rect class="gray" x="36" y="168" width="8" height="16" fill="#f8ddac"/>
<rect class="gray" x="36" y="152" width="8" height="16" fill="#f8ddac"/>
<g class="text" fill="#f8ddac">
<text x="96" y="20">$$=-\</text>
<text x="116" y="36">%%%%%%</text>
<text x="120" y="52">%%%%%%%%%%%</text>
<text x="116" y="68">%&amp;(∙)%%%%(∙)&amp;%</text>
<text x="16" y="84">$$$</text>
<text x="120" y="84">%%%%%⌐¨¨¬%%%%%%</text>
<text x="220" y="84">$$$$</text>
<text x="56" y="100">$$$$ %%%%%¨</text>
<text x="176" y="100">¨%%%%% $$$$</text>
<text x="116" y="116">$$$$%%@%%%%%%@%%%%%@$$$$</text>
<text x="120" y="132">$$%@%@%@%@@%@@%@%@%@$</text>
<text x="120" y="148">@@@@@@@@@@@@@@@@@@@</text>
<text x="52" y="164">@@</text>
<text x="88" y="164">@@▌</text>
<text x="152" y="164">▄@@@▄▐@▌@▄@</text>
<text x="120" y="196">Hello World</text>
<text x="48" y="212">▀</text>
<text x="192" y="212">▀</text>
<text x="68" y="228">▀▀</text>
<text x="176" y="228">▀</text>
</g>
</svg>
